<svg width="400" height="300" viewBox="0 0 400 300" xmlns="http://www.w3.org/2000/svg">
  <!-- Background elements -->
  <rect x="50" y="220" width="300" height="60" rx="5" fill="#E0F2FE" />
  <circle cx="200" cy="100" r="50" fill="#DBEAFE" />
  
  <!-- Student 1 -->
  <g transform="translate(160, 70)">
    <!-- Head -->
    <circle cx="0" cy="0" r="25" fill="#FDE68A" />
    <!-- Face -->
    <circle cx="-8" cy="-5" r="3" fill="#1E3A8A" /> <!-- Left eye -->
    <circle cx="8" cy="-5" r="3" fill="#1E3A8A" /> <!-- Right eye -->
    <path d="M-8,10 Q0,15 8,10" stroke="#1E3A8A" stroke-width="2" fill="none" /> <!-- Smile -->
    <!-- Hair -->
    <path d="M-22,-5 Q-25,-15 -15,-22 Q-5,-28 0,-25 Q5,-28 15,-22 Q25,-15 22,-5" fill="#78350F" />
    <!-- Body -->
    <rect x="-20" y="25" width="40" height="50" fill="#67E8F9" />
    <!-- Arms -->
    <rect x="-30" y="30" width="10" height="30" rx="5" fill="#67E8F9" />
    <rect x="20" y="30" width="10" height="30" rx="5" fill="#67E8F9" />
    <!-- Book -->
    <rect x="-15" y="45" width="30" height="20" fill="#EF4444" />
    <line x1="-15" y1="55" x2="15" y2="55" stroke="white" stroke-width="2" />
  </g>

  <!-- Student 2 -->
  <g transform="translate(230, 75)">
    <!-- Head -->
    <circle cx="0" cy="0" r="20" fill="#FCE7F3" />
    <!-- Face -->
    <circle cx="-6" cy="-4" r="2.5" fill="#1E3A8A" /> <!-- Left eye -->
    <circle cx="6" cy="-4" r="2.5" fill="#1E3A8A" /> <!-- Right eye -->
    <path d="M-6,8 Q0,12 6,8" stroke="#1E3A8A" stroke-width="1.5" fill="none" /> <!-- Smile -->
    <!-- Hair -->
    <path d="M-15,0 Q-18,-10 -10,-15 Q-2,-20 0,-18 Q2,-20 10,-15 Q18,-10 15,0" fill="#7F1D1D" />
    <path d="M-10,-2 L-13,15 M10,-2 L13,15" stroke="#7F1D1D" stroke-width="3" /> <!-- Ponytails -->
    <!-- Body -->
    <rect x="-15" y="20" width="30" height="40" fill="#A7F3D0" />
    <!-- Arms -->
    <rect x="-25" y="25" width="10" height="25" rx="5" fill="#A7F3D0" />
    <rect x="15" y="25" width="10" height="25" rx="5" fill="#A7F3D0" />
    <!-- Tablet -->
    <rect x="-12" y="35" width="24" height="18" rx="2" fill="#6D28D9" />
    <rect x="-8" y="40" width="16" height="8" rx="1" fill="white" />
  </g>

  <!-- Student 3 -->
  <g transform="translate(110, 80)">
    <!-- Head -->
    <circle cx="0" cy="0" r="22" fill="#D9F99D" />
    <!-- Face -->
    <circle cx="-7" cy="-4" r="2.5" fill="#1E3A8A" /> <!-- Left eye -->
    <circle cx="7" cy="-4" r="2.5" fill="#1E3A8A" /> <!-- Right eye -->
    <path d="M-7,8 Q0,12 7,8" stroke="#1E3A8A" stroke-width="1.5" fill="none" /> <!-- Smile -->
    <!-- Hair -->
    <path d="M-18,-5 Q-20,-15 -10,-20 Q0,-25 10,-20 Q20,-15 18,-5" fill="#1E3A8A" />
    <!-- Body -->
    <rect x="-18" y="22" width="36" height="45" fill="#FCD34D" />
    <!-- Arms -->
    <rect x="-28" y="27" width="10" height="28" rx="5" fill="#FCD34D" />
    <rect x="18" y="27" width="10" height="28" rx="5" fill="#FCD34D" />
    <!-- Pencil -->
    <line x1="-28" y1="30" x2="-10" y2="40" stroke="#4B5563" stroke-width="2" />
    <polygon points="-28,30 -32,28 -30,33" fill="#F87171" />
  </g>

  <!-- Desk -->
  <rect x="70" y="200" width="260" height="10" rx="3" fill="#6B7280" />
  <rect x="80" y="210" width="10" height="40" fill="#6B7280" />
  <rect x="310" y="210" width="10" height="40" fill="#6B7280" />

  <!-- Decorations -->
  <circle cx="320" cy="60" r="15" fill="#FEF3C7" opacity="0.7" /> <!-- Sun/light -->
  <circle cx="340" cy="50" r="10" fill="#FEF3C7" opacity="0.5" />
  <circle cx="300" cy="40" r="12" fill="#FEF3C7" opacity="0.6" />
</svg> 